<?xml version="1.0" encoding="UTF-8"?>
<svg id="Layer_1" data-name="Layer 1" xmlns="http://www.w3.org/2000/svg" viewBox="0 0 48 48">
  <defs>
    <style>
      .cls-1 {
        stroke-width: 0px;
      }
    </style>
  </defs>
  <path class="cls-1" d="m45,34c0-1.066-.563-1.998-1.403-2.53.248-.437.403-.933.403-1.47v-1c0-4.962-4.038-9-9-9h-8c-.092,0-.181.011-.273.014l.224-3.265c.622-.34,1.049-.992,1.049-1.749v-2c0-1.103-.897-2-2-2h-8v-3.563l3.307-3.316c.779-.779.779-2.045.005-2.819l-.705-.715c-.782-.782-2.053-.782-2.835,0l-3.88,3.89c-.567.552-.892,1.328-.892,2.126v4.397H5c-1.103,0-2,.897-2,2v2c0,.757.428,1.409,1.049,1.749l1.823,26.457c.104,1.566,1.421,2.794,2.998,2.794h29.13c2.798,0,5.151-1.897,5.799-4.563.724-.544,1.201-1.43,1.201-2.432v-1.005c0-.771-.296-1.473-.776-2.005.477-.531.776-1.226.776-1.995Zm-2,4v1.005c0,.528-.397.993-.852.995h-.007c-.433,0-.841-.169-1.148-.477-1.413-1.414-3.714-1.414-5.129,0-.614.616-1.685.614-2.3,0-1.414-1.414-3.714-1.414-5.128,0-.613.615-1.684.616-2.3,0-1.414-1.414-3.715-1.414-5.128,0-.308.308-.715.477-1.149.477h-.007c-.454-.002-.851-.467-.851-.995v-1.005c0-.552.449-1,1-1h22c.551,0,1,.448,1,1ZM6.76,27h11.471c-.147.644-.232,1.312-.232,2v1c0,.537.153,1.034.402,1.471-.232.147-.438.326-.621.529H7.105l-.345-5Zm35.24,6c.551,0,1,.448,1,1s-.449,1-1,1h-22c-.551,0-1-.448-1-1s.449-1,1-1h22Zm-7-11c3.86,0,7,3.141,7,7v1c0,.552-.449,1-1,1h-20c-.551,0-1-.448-1-1v-1c0-3.859,3.14-7,7-7h8Zm-16.05,3H6.622l-.551-8h18.858l-.227,3.308c-2.522.668-4.61,2.401-5.753,4.692Zm-3.95-18.397c0-.263.105-.516.298-.704l3.89-3.904.704.712-3.6,3.61c-.187.188-.292.441-.292.706v3.977h-1v-4.397Zm-10,6.397h21v2H5v-2Zm2.868,30.071l-.625-9.071h9.757c0,.769.299,1.464.777,1.996-.48.532-.777,1.233-.777,2.004v1.005c0,1.002.477,1.888,1.201,2.432.238.977.696,1.849,1.334,2.563h-10.665c-.527,0-.968-.407-1.002-.929Zm30.132.929h-14c-1.499,0-2.811-.813-3.495-2.053.731-.124,1.383-.477,1.916-1.01.634-.633,1.666-.635,2.3,0,1.37,1.371,3.76,1.371,5.129,0,.634-.635,1.666-.635,2.3,0,.685.686,1.596,1.062,2.564,1.062s1.879-.377,2.564-1.062c.635-.633,1.667-.633,2.3,0,.531.531,1.198.871,1.921,1-.682,1.245-1.997,2.063-3.499,2.063Z"/>
  <circle class="cls-1" cx="25" cy="28" r="1"/>
  <circle class="cls-1" cx="31" cy="28" r="1"/>
  <circle class="cls-1" cx="28" cy="25" r="1"/>
  <circle class="cls-1" cx="34" cy="25" r="1"/>
  <circle class="cls-1" cx="37" cy="28" r="1"/>
</svg>